<svg width="294" height="247" fill="none" xmlns="http://www.w3.org/2000/svg"><path d="M162.34 197.576l22.588-164.548 23.674-7.196 23.433 150.512-22.95 6.96-2.295-21.586-18.48 5.662-2.416 23.001-23.554 7.195zm42.276-57.916l-7.368-50.485-7.126 54.967 14.494-4.482zM38.652 77.38c10.75-3.304 30.68 3.066 30.68 24.416 0 15.57-9.3 25.597-9.3 25.597s9.3 4.482 9.3 20.524c0 13.565-9.3 24.181-9.3 24.181s9.3 5.544 9.3 19.817c0 30.904-30.68 43.289-30.68 43.289L0 247V89.175s27.902-8.493 38.652-11.796zM23.071 104.98v21.94l13.649-4.129s8.697-3.892 8.697-13.211c0-9.318-8.939-8.611-8.939-8.611l-13.407 4.011zm0 44.587v21.94l13.649-4.128s8.697-3.893 8.697-13.211c0-9.319-8.939-8.611-8.939-8.611l-13.407 4.01zm0 45.295v21.94l13.649-4.128s8.697-3.893 8.697-13.211c0-9.319-8.939-8.611-8.939-8.611l-13.407 4.01zM84.673 63.342v157.826l68.729-20.997V177.17l-45.9 13.919v-22.058l45.9-13.919v-22.765l-45.9 13.801v-21.94l45.9-13.919V87.405l-45.9 13.919v-21.94l45.9-13.918V42.582l-68.729 20.76zM248.463 171.862V36.802L225.03 43.88V20.878L294 0v23.001l-22.829 6.96v134.588l-22.708 7.313z" fill="#A0A0A0" fill-opacity=".4"/></svg>
