<svg width="38" height="38" fill="none" xmlns="http://www.w3.org/2000/svg">
  <path fill-rule="evenodd" clip-rule="evenodd" d="M19 38a19 19 0 100-38 19 19 0 000 38z" fill="#2BE080"/>
  <path d="M14.8 21.3c.7 0 1.4.3 2.2 1 1 .7 1.6 1 2 1 .5 0 .8-.2.8-.8 0-.3-.2-.5-.5-.7-.2-.1-1-.5-2.8-1-2.7-1-4-2.9-4-5.6 0-2 .7-3.6 2-4.7 1.4-1 3-1.5 4.8-1.5 1.6 0 3 .4 4.2 1.2 1.2.7 1.8 1.8 1.8 3 0 .8-.2 1.4-.7 1.9-.4.5-1 .7-1.7.7-.8 0-1.6-.3-2.6-1-.5-.5-1-.8-1.2-.8-.5 0-.8.3-.8.8 0 .4.6.9 1.9 1.2 1.7.6 3 1.3 4 2 1.2 1.1 1.8 2.6 1.8 4.5a6 6 0 01-2 4.9 7.6 7.6 0 01-5.2 1.6c-2 0-3.8-.6-5.1-1.7-1.1-1-1.7-2-1.7-3.1 0-.9.3-1.5.8-2a3 3 0 012-.9z" fill="#fff"/>
</svg>
